<svg xmlns="http://www.w3.org/2000/svg" xmlns:xlink="http://www.w3.org/1999/xlink" viewBox="0 0 1920.001 1003.657">
  <defs>
    <linearGradient id="linear-gradient" x1="0.489" y1="0.88" x2="0.519" y2="0.032" gradientUnits="objectBoundingBox">
      <stop offset="0" stop-color="#671cc1"/>
      <stop offset="1"/>
    </linearGradient>
  </defs>
  <g id="Group_404" data-name="Group 404" transform="translate(0 187.071)">
    <path id="Path_1732" data-name="Path 1732" d="M1920-187.071V512.441a36.879,36.879,0,0,0-10.239,7.661,37.293,37.293,0,0,0-8.6,36.67A68.5,68.5,0,0,0,1837,626.445a77.252,77.252,0,0,0-83.289,42.843,45.935,45.935,0,0,0-68.04,14.959,116.891,116.891,0,0,0-99.046,33.185,47.352,47.352,0,0,0-67.459,49.487,92.58,92.58,0,0,0-94.036,1.525c-2.36,1.452-4.611,2.977-6.789,4.611A134.743,134.743,0,0,0,1236.988,804.1a63.719,63.719,0,0,0-37.179-10.275,77.214,77.214,0,0,0-69.2-48.579,87.266,87.266,0,0,0-75.773-71.816,40.221,40.221,0,0,0-46.691-34.782,40.211,40.211,0,0,0-19.279-6.717C966.426,588.286,960.4,471.3,960.036,463.244a.219.219,0,1,0-.073,0c-.363,8.06-6.39,125.006-28.828,168.684a39.3,39.3,0,0,0-38.631,36.2,38.81,38.81,0,0,0-7.915,1.961A39.372,39.372,0,0,0,858.848,702.8a48.8,48.8,0,0,0-40.41,22.656,49.552,49.552,0,0,0-3.594,6.862c-.218-.145-.436-.327-.654-.472a48.886,48.886,0,0,0-75.083,42.7A43.163,43.163,0,0,0,687.7,791.9a42.254,42.254,0,0,0-5.954,15.1,39.822,39.822,0,0,0-52.718,7.3,72.86,72.86,0,0,0-108.813,2.287,82.284,82.284,0,0,0-93.455-48,48.85,48.85,0,0,0-75.12-50.54A124.212,124.212,0,0,0,218.9,669.179a129.306,129.306,0,0,0-80.82-39.212A142.683,142.683,0,0,0,76.717,546.86a143.274,143.274,0,0,0-38.885-17.21A67.485,67.485,0,0,0,6.789,478.167,70.037,70.037,0,0,0,0,474.354V-187.071Z" fill="url(#linear-gradient)"/>
    <path id="Path_1744" data-name="Path 1744" d="M897.842,499.148a58.378,58.378,0,0,0-8.024-.581,59.357,59.357,0,0,0-59.362,58.781,110.034,110.034,0,0,0-24.616-2.832,108.387,108.387,0,0,0-90.7,48.979,70.089,70.089,0,0,0-99.373,21.93,66.523,66.523,0,0,0-86.665-3.013,109.394,109.394,0,0,0-95.633-69.928,91.454,91.454,0,0,0-86.339-64.3,31.955,31.955,0,0,0-52.391-12.671,79.292,79.292,0,0,0-32.422-19.787,94.458,94.458,0,0,0,2.215-20.4,95.937,95.937,0,0,0-78.859-94.4A126.318,126.318,0,0,0,100.244,194.6,31.99,31.99,0,0,0,72.615,146.5a32.86,32.86,0,0,0-5.373.508A75.446,75.446,0,0,0,25.125,96.792a31.684,31.684,0,0,0,6.862-19.715A31.99,31.99,0,0,0,0,45.09V355.735a70.037,70.037,0,0,1,6.789,3.812,67.485,67.485,0,0,1,31.043,51.484,143.274,143.274,0,0,1,38.885,17.21,142.683,142.683,0,0,1,61.359,83.107A129.306,129.306,0,0,1,218.9,550.56a124.212,124.212,0,0,1,132.739,48.87,48.85,48.85,0,0,1,75.12,50.54,82.284,82.284,0,0,1,93.455,48,72.86,72.86,0,0,1,108.813-2.287,39.822,39.822,0,0,1,52.718-7.3,42.254,42.254,0,0,1,5.954-15.1,43.163,43.163,0,0,1,51.411-17.355,48.886,48.886,0,0,1,75.083-42.7c.218.145.436.327.654.472a49.552,49.552,0,0,1,3.594-6.862,48.8,48.8,0,0,1,40.41-22.656,39.372,39.372,0,0,1,25.742-32.713,38.81,38.81,0,0,1,7.915-1.961,39.3,39.3,0,0,1,38.631-36.2c22.438-43.678,28.465-160.623,28.828-168.684-.508,5.991-6.354,70.727-25.633,116.655a47.064,47.064,0,0,0-36.489,37.868" transform="translate(0 118.62)" fill="#3d0086"/>
    <path id="Path_1745" data-name="Path 1745" d="M1196.173,171.884a116.788,116.788,0,0,0-25.814,27.085,43.538,43.538,0,0,0-56.784,62.3,100.719,100.719,0,0,0-74.611,119.415A64.665,64.665,0,0,0,1001.53,392.2a61.883,61.883,0,0,0-75.011,44.622,101.369,101.369,0,0,0-99.845,56.93,84.486,84.486,0,0,0-54.388,15.358,29.574,29.574,0,0,0-46.219,18.952,73.187,73.187,0,0,0-55.005,12.925c-2.142,1.561-4.175,3.231-6.1,4.938a89.085,89.085,0,0,0-126.785,7.77A62.039,62.039,0,0,0,485.1,551.44a69.769,69.769,0,0,0-71.053-73.413,28.95,28.95,0,0,0-4.357-8.9A29.6,29.6,0,0,0,381.4,457.186a69.673,69.673,0,0,0-65.317-59,29.649,29.649,0,0,0-38.34-37.215c-9.585-37.505-12.925-74.43-13.325-78.932.363,8.06,6.39,125.042,28.828,168.684a40.211,40.211,0,0,1,19.279,6.717,40.221,40.221,0,0,1,46.691,34.782,87.266,87.266,0,0,1,75.773,71.816,77.214,77.214,0,0,1,69.2,48.579,63.719,63.719,0,0,1,37.179,10.275A134.743,134.743,0,0,1,722.726,591.85c2.178-1.634,4.429-3.159,6.789-4.611a92.58,92.58,0,0,1,94.036-1.525,47.352,47.352,0,0,1,67.459-49.487,116.891,116.891,0,0,1,99.046-33.185,45.935,45.935,0,0,1,68.04-14.959,77.252,77.252,0,0,1,83.289-42.843,68.5,68.5,0,0,1,64.155-69.674,37.293,37.293,0,0,1,8.6-36.67,36.88,36.88,0,0,1,10.239-7.661V68.88a117.112,117.112,0,0,0-28.211,103" transform="translate(695.616 181.205)" fill="#3d0086"/>
  </g>
</svg>
