<svg xmlns="http://www.w3.org/2000/svg" xmlns:xlink="http://www.w3.org/1999/xlink" viewBox="0 0 344.078 582.616">
  <defs>
    <clipPath id="clip-path">
      <rect id="Rectangle_397" data-name="Rectangle 397" width="582.616" height="344.078" fill="#8c4adb"/>
    </clipPath>
  </defs>
  <g id="Group_1428" data-name="Group 1428" transform="translate(344.078) rotate(90)">
    <g id="Group_392" data-name="Group 392" clip-path="url(#clip-path)">
      <path id="Path_1747" data-name="Path 1747" d="M451.248,102.423a3.493,3.493,0,0,0-2.791-2.79,3.493,3.493,0,0,0,2.791-2.79,3.492,3.492,0,0,0,2.79,2.79,3.493,3.493,0,0,0-2.79,2.79" transform="translate(-269.541 -58.207)" fill="#8c4adb"/>
      <path id="Path_1748" data-name="Path 1748" d="M211.349,636.7a3.492,3.492,0,0,0-2.79-2.79,3.492,3.492,0,0,0,2.79-2.79,3.492,3.492,0,0,0,2.79,2.79,3.492,3.492,0,0,0-2.79,2.79" transform="translate(-125.353 -379.331)" fill="#8c4adb"/>
      <path id="Path_1749" data-name="Path 1749" d="M482.235,595.956a3.492,3.492,0,0,0-2.79-2.79,3.492,3.492,0,0,0,2.79-2.79,3.492,3.492,0,0,0,2.79,2.79,3.492,3.492,0,0,0-2.79,2.79" transform="translate(-288.166 -354.841)" fill="#8c4adb"/>
      <path id="Path_1750" data-name="Path 1750" d="M517.163,858.236a1.4,1.4,0,1,1,0-2.79,1.4,1.4,0,1,1,0,2.79" transform="translate(-309.998 -514.159)" fill="#8c4adb"/>
      <path id="Path_1751" data-name="Path 1751" d="M1.4,165.956a1.747,1.747,0,0,0-1.4-1.4,1.746,1.746,0,0,0,1.4-1.4,1.746,1.746,0,0,0,1.4,1.4,1.747,1.747,0,0,0-1.4,1.4" transform="translate(0 -98.07)" fill="#8c4adb"/>
      <path id="Path_1752" data-name="Path 1752" d="M255.519,319.942a2.467,2.467,0,0,0-2.788,0,2.467,2.467,0,0,0,0-2.787,2.469,2.469,0,0,0,2.788,0,2.465,2.465,0,0,0,0,2.787" transform="translate(-151.902 -190.623)" fill="#8c4adb"/>
      <path id="Path_1753" data-name="Path 1753" d="M362.431,511.052a1.971,1.971,0,1,1-2.788-2.788,1.971,1.971,0,0,1,2.788,2.788" transform="translate(-216.161 -305.488)" fill="#8c4adb"/>
      <path id="Path_1754" data-name="Path 1754" d="M420.091,755.361a1.971,1.971,0,0,1-2.788-2.787,1.971,1.971,0,0,1,2.788,2.787" transform="translate(-250.817 -452.328)" fill="#8c4adb"/>
      <path id="Path_1755" data-name="Path 1755" d="M63.664,27.457a2.467,2.467,0,0,0-2.788,0,2.468,2.468,0,0,0,0-2.788,2.468,2.468,0,0,0,2.788,0,2.467,2.467,0,0,0,0,2.788" transform="translate(-36.589 -14.827)" fill="#8c4adb"/>
      <path id="Path_1756" data-name="Path 1756" d="M491.337,288.254a1.121,1.121,0,1,1,1.122-1.121,1.121,1.121,0,0,1-1.122,1.121" transform="translate(-294.64 -171.905)" fill="#8c4adb"/>
      <path id="Path_1757" data-name="Path 1757" d="M1415.754,108.473a3.493,3.493,0,0,0-2.79-2.79,2.79,2.79,0,0,1,5.581,0,3.492,3.492,0,0,0-2.79,2.79" transform="translate(-849.25 -61.843)" fill="#8c4adb"/>
      <path id="Path_1758" data-name="Path 1758" d="M1175.855,642.752a3.492,3.492,0,0,0-2.79-2.79,2.79,2.79,0,0,1,5.581,0,3.492,3.492,0,0,0-2.79,2.79" transform="translate(-705.061 -382.967)" fill="#8c4adb"/>
      <path id="Path_1759" data-name="Path 1759" d="M1446.74,602.006a3.493,3.493,0,0,0-2.79-2.79,2.79,2.79,0,0,1,5.58,0,3.492,3.492,0,0,0-2.79,2.79" transform="translate(-867.874 -358.477)" fill="#8c4adb"/>
      <path id="Path_1760" data-name="Path 1760" d="M1220.025,325.992a2.467,2.467,0,0,0-2.788,0,2.469,2.469,0,0,0,0-2.787,2.468,2.468,0,0,0,2.788,0,2.466,2.466,0,0,0,0,2.787" transform="translate(-731.61 -194.259)" fill="#8c4adb"/>
      <path id="Path_1761" data-name="Path 1761" d="M1146.741,517.1a1.971,1.971,0,0,1-2.788-2.787,1.971,1.971,0,0,1,2.788,2.787" transform="translate(-687.564 -309.125)" fill="#8c4adb"/>
      <path id="Path_1762" data-name="Path 1762" d="M1384.6,761.411a1.971,1.971,0,0,1-2.788-2.788,1.971,1.971,0,1,1,2.788,2.788" transform="translate(-830.524 -455.964)" fill="#8c4adb"/>
      <path id="Path_1763" data-name="Path 1763" d="M1455.844,294.3a1.121,1.121,0,1,1,1.122-1.121,1.121,1.121,0,0,1-1.122,1.121" transform="translate(-874.349 -175.541)" fill="#8c4adb"/>
      <path id="Path_1764" data-name="Path 1764" d="M122.251,151.213a.779.779,0,1,1,.779-.779.779.779,0,0,1-.779.779" transform="translate(-73.01 -89.949)" fill="#8c4adb"/>
      <path id="Path_1765" data-name="Path 1765" d="M306.6,457.34a.8.8,0,1,1,.8-.8.8.8,0,0,1-.8.8" transform="translate(-183.799 -273.918)" fill="#8c4adb"/>
      <path id="Path_1766" data-name="Path 1766" d="M106.326,661.326a1.6,1.6,0,1,1,1.6-1.6,1.6,1.6,0,0,1-1.6,1.6" transform="translate(-62.943 -395.559)" fill="#8c4adb"/>
      <path id="Path_1767" data-name="Path 1767" d="M671.294,751.61a2.79,2.79,0,1,1,0,5.58,2.79,2.79,0,1,1,0-5.58" transform="translate(-401.799 -451.749)" fill="#8c4adb"/>
      <path id="Path_1768" data-name="Path 1768" d="M911.192,217.331a3.493,3.493,0,0,0,2.79,2.79,2.79,2.79,0,0,1-5.581,0,3.492,3.492,0,0,0,2.79-2.79" transform="translate(-545.988 -130.625)" fill="#8c4adb"/>
      <path id="Path_1769" data-name="Path 1769" d="M640.307,258.078a3.493,3.493,0,0,0,2.79,2.79,3.492,3.492,0,0,0-2.79,2.79,3.492,3.492,0,0,0-2.79-2.79,3.493,3.493,0,0,0,2.79-2.79" transform="translate(-383.174 -155.116)" fill="#8c4adb"/>
      <path id="Path_1770" data-name="Path 1770" d="M609.583,0a1.746,1.746,0,0,0,1.4,1.4,1.4,1.4,0,1,1-2.79,0,1.747,1.747,0,0,0,1.4-1.4" transform="translate(-365.546)" fill="#8c4adb"/>
      <path id="Path_1771" data-name="Path 1771" d="M1125.35,692.28a1.4,1.4,0,0,1,0,2.79,1.4,1.4,0,1,1,0-2.79" transform="translate(-675.544 -416.089)" fill="#8c4adb"/>
      <path id="Path_1772" data-name="Path 1772" d="M871.231,538.3a1.971,1.971,0,0,1,2.787,2.788,1.971,1.971,0,0,1-2.787-2.788" transform="translate(-523.646 -323.54)" fill="#8c4adb"/>
      <path id="Path_1773" data-name="Path 1773" d="M944.514,347.189a1.971,1.971,0,0,1,2.788,2.788,1.971,1.971,0,0,1-2.788-2.788" transform="translate(-567.692 -208.675)" fill="#8c4adb"/>
      <path id="Path_1774" data-name="Path 1774" d="M706.659,102.881a2.467,2.467,0,0,0,2.787,0,2.468,2.468,0,0,0,0,2.788,2.468,2.468,0,0,0-2.787,0,2.467,2.467,0,0,0,0-2.788" transform="translate(-424.732 -61.836)" fill="#8c4adb"/>
      <path id="Path_1775" data-name="Path 1775" d="M1063.086,830.784a1.971,1.971,0,0,1,2.788,2.788,1.971,1.971,0,0,1-2.788-2.788" transform="translate(-638.959 -499.336)" fill="#8c4adb"/>
      <path id="Path_1776" data-name="Path 1776" d="M636.233,570.807a1.122,1.122,0,1,1-1.122,1.122,1.121,1.121,0,0,1,1.122-1.122" transform="translate(-381.728 -343.079)" fill="#8c4adb"/>
      <path id="Path_1777" data-name="Path 1777" d="M1006.352,708.881a.779.779,0,1,1-.779.779.779.779,0,0,1,.779-.779" transform="translate(-604.391 -426.067)" fill="#8c4adb"/>
      <path id="Path_1778" data-name="Path 1778" d="M1002.129,402.686a.8.8,0,1,1-.8.8.8.8,0,0,1,.8-.8" transform="translate(-601.84 -242.031)" fill="#8c4adb"/>
      <path id="Path_1779" data-name="Path 1779" d="M1019.8,196.287a1.6,1.6,0,1,1-1.6,1.6,1.6,1.6,0,0,1,1.6-1.6" transform="translate(-611.977 -117.977)" fill="#8c4adb"/>
    </g>
  </g>
</svg>
