<svg id="Group_393" data-name="Group 393" xmlns="http://www.w3.org/2000/svg" xmlns:xlink="http://www.w3.org/1999/xlink" viewBox="0 0 1460.344 862.44">
  <defs>
    <clipPath id="clip-path">
      <rect id="Rectangle_397" data-name="Rectangle 397" fill="#8c4adb"/>
    </clipPath>
  </defs>
  <g id="Group_392" data-name="Group 392" clip-path="url(#clip-path)">
    <path id="Path_1747" data-name="Path 1747" d="M455.452,110.83c0-2.886-4.108-6.994-6.995-6.994,2.887,0,6.995-4.107,6.995-6.993,0,2.886,4.107,6.993,6.993,6.993-2.886,0-6.993,4.108-6.993,6.994" fill="#8c4adb"/>
    <path id="Path_1748" data-name="Path 1748" d="M215.553,645.109c0-2.886-4.107-6.994-6.994-6.994,2.887,0,6.994-4.107,6.994-6.993,0,2.886,4.107,6.993,6.994,6.993-2.887,0-6.994,4.108-6.994,6.994" fill="#8c4adb"/>
    <path id="Path_1749" data-name="Path 1749" d="M486.439,604.363c0-2.886-4.107-6.994-6.994-6.994,2.887,0,6.994-4.107,6.994-6.993,0,2.886,4.107,6.993,6.994,6.993-2.887,0-6.994,4.108-6.994,6.994" fill="#8c4adb"/>
    <path id="Path_1750" data-name="Path 1750" d="M519.265,862.44a4.378,4.378,0,0,0-3.5-3.5,4.378,4.378,0,0,0,3.5-3.5,4.378,4.378,0,0,0,3.5,3.5,4.378,4.378,0,0,0-3.5,3.5" fill="#8c4adb"/>
    <path id="Path_1751" data-name="Path 1751" d="M3.5,170.16a4.378,4.378,0,0,0-3.5-3.5,4.378,4.378,0,0,0,3.5-3.5,4.378,4.378,0,0,0,3.5,3.5,4.378,4.378,0,0,0-3.5,3.5" fill="#8c4adb"/>
    <path id="Path_1752" data-name="Path 1752" d="M259.719,324.141c-1.443-1.442-5.546-1.442-6.988,0,1.442-1.442,1.442-5.546,0-6.987,1.442,1.441,5.545,1.441,6.988,0-1.443,1.441-1.443,5.545,0,6.987" fill="#8c4adb"/>
    <path id="Path_1753" data-name="Path 1753" d="M366.63,515.251c-1.442-1.442-5.546-1.442-6.987,0,1.441-1.442,1.441-5.546,0-6.987,1.441,1.441,5.545,1.441,6.987,0-1.442,1.441-1.442,5.545,0,6.987" fill="#8c4adb"/>
    <path id="Path_1754" data-name="Path 1754" d="M424.29,759.56c-1.442-1.442-5.546-1.442-6.987,0,1.441-1.442,1.441-5.546,0-6.987,1.441,1.441,5.545,1.441,6.987,0-1.442,1.441-1.442,5.545,0,6.987" fill="#8c4adb"/>
    <path id="Path_1755" data-name="Path 1755" d="M67.863,31.656c-1.442-1.442-5.546-1.442-6.987,0,1.441-1.442,1.441-5.546,0-6.987,1.441,1.441,5.545,1.441,6.987,0-1.442,1.441-1.442,5.545,0,6.987" fill="#8c4adb"/>
    <path id="Path_1756" data-name="Path 1756" d="M493.027,291.633a2.811,2.811,0,1,1,2.811-2.811,2.811,2.811,0,0,1-2.811,2.811" fill="#8c4adb"/>
    <path id="Path_1757" data-name="Path 1757" d="M1419.957,116.88c0-2.886-4.107-6.994-6.994-6.994,2.887,0,6.994-4.107,6.994-6.993,0,2.886,4.107,6.993,6.994,6.993-2.887,0-6.994,4.108-6.994,6.994" fill="#8c4adb"/>
    <path id="Path_1758" data-name="Path 1758" d="M1180.059,651.159c0-2.886-4.107-6.994-6.994-6.994,2.887,0,6.994-4.107,6.994-6.993,0,2.886,4.107,6.993,6.994,6.993-2.887,0-6.994,4.108-6.994,6.994" fill="#8c4adb"/>
    <path id="Path_1759" data-name="Path 1759" d="M1450.944,610.413c0-2.886-4.107-6.994-6.994-6.994,2.887,0,6.994-4.107,6.994-6.993,0,2.886,4.107,6.993,6.994,6.993-2.887,0-6.994,4.108-6.994,6.994" fill="#8c4adb"/>
    <path id="Path_1760" data-name="Path 1760" d="M1224.224,330.191c-1.442-1.442-5.546-1.442-6.987,0,1.441-1.442,1.441-5.546,0-6.987,1.441,1.441,5.545,1.441,6.987,0-1.442,1.441-1.442,5.545,0,6.987" fill="#8c4adb"/>
    <path id="Path_1761" data-name="Path 1761" d="M1150.94,521.3c-1.442-1.442-5.546-1.442-6.987,0,1.441-1.442,1.441-5.546,0-6.987,1.441,1.441,5.545,1.441,6.987,0-1.442,1.441-1.442,5.545,0,6.987" fill="#8c4adb"/>
    <path id="Path_1762" data-name="Path 1762" d="M1388.8,765.61c-1.442-1.442-5.546-1.442-6.987,0,1.441-1.442,1.441-5.546,0-6.987,1.441,1.441,5.545,1.441,6.987,0-1.442,1.441-1.442,5.545,0,6.987" fill="#8c4adb"/>
    <path id="Path_1763" data-name="Path 1763" d="M1457.533,297.684a2.811,2.811,0,1,1,2.811-2.811,2.811,2.811,0,0,1-2.811,2.811" fill="#8c4adb"/>
    <path id="Path_1764" data-name="Path 1764" d="M123.424,153.56a1.952,1.952,0,1,1,1.952-1.952,1.952,1.952,0,0,1-1.952,1.952" fill="#8c4adb"/>
    <path id="Path_1765" data-name="Path 1765" d="M307.808,459.754a2.008,2.008,0,1,1,2.008-2.008,2.008,2.008,0,0,1-2.008,2.008" fill="#8c4adb"/>
    <path id="Path_1766" data-name="Path 1766" d="M108.74,666.153a4.016,4.016,0,1,1,4.016-4.016,4.016,4.016,0,0,1-4.016,4.016" fill="#8c4adb"/>
    <path id="Path_1767" data-name="Path 1767" d="M675.5,751.61c0,2.886,4.107,6.994,6.994,6.994-2.887,0-6.994,4.107-6.994,6.993,0-2.886-4.107-6.993-6.994-6.993,2.887,0,6.994-4.108,6.994-6.994" fill="#8c4adb"/>
    <path id="Path_1768" data-name="Path 1768" d="M915.4,217.331c0,2.886,4.107,6.994,6.994,6.994-2.887,0-6.994,4.107-6.994,6.993,0-2.886-4.107-6.993-6.994-6.993,2.887,0,6.994-4.108,6.994-6.994" fill="#8c4adb"/>
    <path id="Path_1769" data-name="Path 1769" d="M644.511,258.078c0,2.886,4.107,6.994,6.994,6.994-2.887,0-6.994,4.107-6.994,6.993,0-2.886-4.107-6.993-6.994-6.993,2.887,0,6.994-4.108,6.994-6.994" fill="#8c4adb"/>
    <path id="Path_1770" data-name="Path 1770" d="M611.685,0a4.378,4.378,0,0,0,3.5,3.5,4.378,4.378,0,0,0-3.5,3.5,4.378,4.378,0,0,0-3.5-3.5,4.378,4.378,0,0,0,3.5-3.5" fill="#8c4adb"/>
    <path id="Path_1771" data-name="Path 1771" d="M1127.452,692.28a4.378,4.378,0,0,0,3.5,3.5,3.5,3.5,0,1,1-6.994,0,4.378,4.378,0,0,0,3.5-3.5" fill="#8c4adb"/>
    <path id="Path_1772" data-name="Path 1772" d="M871.231,538.3c1.442,1.442,5.546,1.442,6.987,0-1.441,1.442-1.441,5.546,0,6.987-1.441-1.441-5.545-1.441-6.987,0,1.442-1.441,1.442-5.545,0-6.987" fill="#8c4adb"/>
    <path id="Path_1773" data-name="Path 1773" d="M944.514,347.189c1.442,1.442,5.546,1.442,6.987,0-1.441,1.442-1.441,5.546,0,6.987-1.441-1.441-5.545-1.441-6.987,0,1.442-1.441,1.442-5.545,0-6.987" fill="#8c4adb"/>
    <path id="Path_1774" data-name="Path 1774" d="M706.659,102.881c1.442,1.442,5.546,1.442,6.987,0-1.441,1.442-1.441,5.546,0,6.987-1.441-1.441-5.545-1.441-6.987,0,1.442-1.441,1.442-5.545,0-6.987" fill="#8c4adb"/>
    <path id="Path_1775" data-name="Path 1775" d="M1063.086,830.784c1.442,1.442,5.546,1.442,6.988,0-1.442,1.442-1.442,5.546,0,6.987-1.442-1.441-5.546-1.441-6.988,0,1.442-1.441,1.442-5.545,0-6.987" fill="#8c4adb"/>
    <path id="Path_1776" data-name="Path 1776" d="M637.922,570.807a2.811,2.811,0,1,1-2.811,2.811,2.811,2.811,0,0,1,2.811-2.811" fill="#8c4adb"/>
    <path id="Path_1777" data-name="Path 1777" d="M1007.525,708.881a1.953,1.953,0,1,1-1.952,1.952,1.952,1.952,0,0,1,1.952-1.952" fill="#8c4adb"/>
    <path id="Path_1778" data-name="Path 1778" d="M1003.336,402.686a2.008,2.008,0,1,1-2.008,2.008,2.008,2.008,0,0,1,2.008-2.008" fill="#8c4adb"/>
    <path id="Path_1779" data-name="Path 1779" d="M1022.209,196.287a4.015,4.015,0,1,1-4.016,4.016,4.016,4.016,0,0,1,4.016-4.016" fill="#8c4adb"/>
  </g>
</svg>
