<svg xmlns="http://www.w3.org/2000/svg" width="67.513" height="105.296" viewBox="0 0 67.513 105.296">
  <g id="Group_1426" data-name="Group 1426" transform="translate(0 0)">
    <g id="Group_1427" data-name="Group 1427" transform="translate(0.5 0.5)">
      <path id="Path_3372" data-name="Path 3372" d="M59.294,54.43V73.34a2.079,2.079,0,0,1-2.073,2.073H3.855" transform="translate(1.328 28.882)" fill="none" stroke="#fff" stroke-linecap="round" stroke-linejoin="round" stroke-width="1"/>
      <path id="Path_3373" data-name="Path 3373" d="M3.855,32.129H57.216A2.08,2.08,0,0,1,59.294,34.2V54.789" transform="translate(1.328 16.732)" fill="none" stroke="#fff" stroke-linecap="round" stroke-linejoin="round" stroke-width="1"/>
      <path id="Path_3374" data-name="Path 3374" d="M48.994,54.43V66.3a1.506,1.506,0,0,1-1.5,1.5H8.782" transform="translate(4.012 28.882)" fill="none" stroke="#fff" stroke-linecap="round" stroke-linejoin="round" stroke-width="1"/>
      <path id="Path_3375" data-name="Path 3375" d="M8.782,37.056H47.491a1.506,1.506,0,0,1,1.5,1.506V51.981" transform="translate(4.012 19.416)" fill="none" stroke="#fff" stroke-linecap="round" stroke-linejoin="round" stroke-width="1"/>
      <path id="Path_3376" data-name="Path 3376" d="M34.541,29.551H40.5a2.079,2.079,0,0,1,2.073,2.073v3.981" transform="translate(18.047 15.327)" fill="none" stroke="#fff" stroke-linecap="round" stroke-linejoin="round" stroke-width="1"/>
      <path id="Path_3377" data-name="Path 3377" d="M31.176,25.422H34.3a2.078,2.078,0,0,1,2.07,2.073v4.3" transform="translate(16.213 13.078)" fill="none" stroke="#fff" stroke-linecap="round" stroke-linejoin="round" stroke-width="1"/>
      <path id="Path_3378" data-name="Path 3378" d="M5.682,69.84A5.181,5.181,0,0,1,.5,64.662v0" transform="translate(-0.499 34.455)" fill="none" stroke="#fff" stroke-linecap="round" stroke-linejoin="round" stroke-width="1"/>
      <path id="Path_3379" data-name="Path 3379" d="M5.683,35.783a5.181,5.181,0,1,1,0-10.361h0" transform="translate(-0.5 13.078)" fill="none" stroke="#fff" stroke-linecap="round" stroke-linejoin="round" stroke-width="1"/>
      <path id="Path_3380" data-name="Path 3380" d="M6.672,30.15a5.178,5.178,0,0,1-3.834-1.7" transform="translate(0.774 14.729)" fill="none" stroke="#fff" stroke-linecap="round" stroke-linejoin="round" stroke-width="1"/>
      <line id="Line_413" data-name="Line 413" y1="55.435" transform="translate(0.002 43.679)" fill="none" stroke="#fff" stroke-linecap="round" stroke-linejoin="round" stroke-width="1"/>
      <line id="Line_414" data-name="Line 414" x2="3.303" transform="translate(5.183 38.499)" fill="none" stroke="#fff" stroke-linecap="round" stroke-linejoin="round" stroke-width="1"/>
      <path id="Path_3381" data-name="Path 3381" d="M53.23,52.693a5.9,5.9,0,0,1-5.9,5.9H31.766A5.9,5.9,0,0,1,31.62,46.8c.049,0,.1,0,.147,0H47.334A5.9,5.9,0,0,1,53.23,52.693Z" transform="translate(13.282 24.724)" fill="none" stroke="#fff" stroke-linecap="round" stroke-linejoin="round" stroke-width="1"/>
      <circle id="Ellipse_106" data-name="Ellipse 106" cx="2.399" cy="2.399" r="2.399" transform="translate(57.311 75.018)" fill="none" stroke="#fff" stroke-linecap="round" stroke-linejoin="round" stroke-width="1"/>
      <path id="Path_3382" data-name="Path 3382" d="M6.326,29.016,3.677,4.055l18.105-1.92" transform="translate(1.231 0.39)" fill="none" stroke="#fd62d5" stroke-linecap="round" stroke-linejoin="round" stroke-width="1"/>
      <path id="Path_3383" data-name="Path 3383" d="M18.074,7.345a4.113,4.113,0,0,1-.519-1.607l-6.569.7A4.113,4.113,0,0,1,7.333,10.96h0l1.658,15.6" transform="translate(3.221 2.353)" fill="none" stroke="#fd62d5" stroke-linecap="round" stroke-linejoin="round" stroke-width="1"/>
      <line id="Line_415" data-name="Line 415" x2="1.644" y2="15.473" transform="translate(7.557 29.406)" fill="none" stroke="#fd62d5" stroke-linecap="round" stroke-linejoin="round" stroke-width="1"/>
      <line id="Line_416" data-name="Line 416" x1="1.381" y1="13.028" transform="translate(12.211 28.911)" fill="none" stroke="#fd62d5" stroke-linecap="round" stroke-linejoin="round" stroke-width="1"/>
      <path id="Path_3384" data-name="Path 3384" d="M11.371,23.35A4.643,4.643,0,0,1,13.157,15.9" transform="translate(4.77 7.89)" fill="none" stroke="#fd62d5" stroke-linecap="round" stroke-linejoin="round" stroke-width="1"/>
      <path id="Path_3385" data-name="Path 3385" d="M12.01,24.91,17.847.5,33.792,4.311" transform="translate(5.771 -0.5)" fill="none" stroke="#fd62d5" stroke-linecap="round" stroke-linejoin="round" stroke-width="1"/>
      <path id="Path_3386" data-name="Path 3386" d="M29.38,6.552,23.561,5.16A4.116,4.116,0,0,1,18.606,8.2L14.959,23.46" transform="translate(7.378 2.038)" fill="none" stroke="#fd62d5" stroke-linecap="round" stroke-linejoin="round" stroke-width="1"/>
      <line id="Line_417" data-name="Line 417" x1="4.891" y2="20.469" transform="translate(12.891 24.41)" fill="none" stroke="#fd62d5" stroke-linecap="round" stroke-linejoin="round" stroke-width="1"/>
      <line id="Line_418" data-name="Line 418" y1="13.018" x2="3.111" transform="translate(19.223 25.499)" fill="none" stroke="#fd62d5" stroke-linecap="round" stroke-linejoin="round" stroke-width="1"/>
      <path id="Path_3387" data-name="Path 3387" d="M16.8,20.981a4.644,4.644,0,0,1,3.181-5.745l.012,0" transform="translate(8.283 7.526)" fill="none" stroke="#fd62d5" stroke-linecap="round" stroke-linejoin="round" stroke-width="1"/>
      <path id="Path_3388" data-name="Path 3388" d="M18.842,23,31.531,1.352,52.4,13.58,39.713,35.234" transform="translate(9.493 -0.037)" fill="none" stroke="#fd62d5" stroke-linecap="round" stroke-linejoin="round" stroke-width="1"/>
      <path id="Path_3389" data-name="Path 3389" d="M34.25,29.689l7.93-13.534a4.114,4.114,0,0,1-1.468-5.628l-5.7-3.341a4.111,4.111,0,0,1-5.626,1.468L21.456,22.19" transform="translate(10.917 3.142)" fill="none" stroke="#fd62d5" stroke-linecap="round" stroke-linejoin="round" stroke-width="1"/>
      <line id="Line_419" data-name="Line 419" y1="9.681" x2="5.673" transform="translate(43.533 35.196)" fill="none" stroke="#fd62d5" stroke-linecap="round" stroke-linejoin="round" stroke-width="1"/>
      <path id="Path_3390" data-name="Path 3390" d="M23.318,15.367,10.629,37.017l.445.261" transform="translate(5.018 7.599)" fill="none" stroke="#fd62d5" stroke-linecap="round" stroke-linejoin="round" stroke-width="1"/>
      <path id="Path_3391" data-name="Path 3391" d="M18.444,36.443l-.653-.383a4.111,4.111,0,0,0-1.468-5.628v0L24.253,16.9" transform="translate(8.121 8.434)" fill="none" stroke="#fd62d5" stroke-linecap="round" stroke-linejoin="round" stroke-width="1"/>
      <line id="Line_420" data-name="Line 420" x1="7.06" y2="12.048" transform="translate(38.109 32.831)" fill="none" stroke="#fd62d5" stroke-linecap="round" stroke-linejoin="round" stroke-width="1"/>
      <path id="Path_3392" data-name="Path 3392" d="M24.886,24.965a4.641,4.641,0,1,1,6.352-1.658A4.641,4.641,0,0,1,24.886,24.965Z" transform="translate(11.536 8.118)" fill="none" stroke="#fd62d5" stroke-linecap="round" stroke-linejoin="round" stroke-width="1"/>
      <line id="Line_421" data-name="Line 421" x2="45.141" transform="translate(7.447 44.878)" fill="none" stroke="#fff" stroke-linecap="round" stroke-linejoin="round" stroke-width="1"/>
    </g>
  </g>
</svg>
